<svg xmlns="http://www.w3.org/2000/svg" xmlns:xlink="http://www.w3.org/1999/xlink" width="92" height="72" viewBox="0 0 92 72"><defs><clipPath id="a"><rect width="91.822" height="71.861" fill="#fff"/></clipPath><clipPath id="b"><path d="M23.28,48.6a13.847,13.847,0,0,1,7.236.089,4.937,4.937,0,0,1,2.952,6.93l-.02.03Z" transform="translate(-23.28 -48.173)"/></clipPath><clipPath id="c"><rect width="515.61" height="404.725"/></clipPath><clipPath id="d"><path d="M22.852,48.6a13.847,13.847,0,0,0-7.236.089,4.937,4.937,0,0,0-2.952,6.93l.02.03Z" transform="translate(-12.149 -48.173)"/></clipPath><clipPath id="f"><path d="M45.649,65.124V78.61H0V65.124a7.593,7.593,0,0,1,4.551-7.039c1.807-.76,3.623-1.491,5.4-2.31l4.571-2.083,3.11-1.787v-5.8H28.008v5.8l3.11,1.787,4.561,2.083c1.787.819,3.6,1.55,5.41,2.31a7.592,7.592,0,0,1,4.561,7.039" transform="translate(0 -46.11)"/></clipPath><clipPath id="h"><path d="M45.649,65.222V78.708H0V65.222a7.593,7.593,0,0,1,4.551-7.039c1.807-.76,3.623-1.491,5.41-2.31l4.561-2.083,8,9.389,8.6-9.389,4.561,2.083c1.787.819,3.613,1.55,5.43,2.32a7.586,7.586,0,0,1,4.541,7.029" transform="translate(0 -53.79)"/></clipPath><clipPath id="j"><path d="M22.986,49.855a9.368,9.368,0,0,1-7.937-4.383l-.237-.385a14.369,14.369,0,0,1-2.2-7.651v-6.21a10.376,10.376,0,0,1,20.752,0v6.21a14.394,14.394,0,0,1-2.2,7.651l-.237.385a9.345,9.345,0,0,1-7.937,4.383" transform="translate(-12.61 -20.88)"/></clipPath><clipPath id="l"><path d="M18.044,34.38a1.255,1.255,0,1,0,1.2,1.254,1.233,1.233,0,0,0-1.2-1.254" transform="translate(-16.84 -34.38)"/></clipPath><clipPath id="n"><path d="M27.864,34.54a1.255,1.255,0,1,0,1.2,1.254,1.233,1.233,0,0,0-1.2-1.254" transform="translate(-26.66 -34.54)"/></clipPath><clipPath id="p"><path d="M23.315,41.914a.673.673,0,0,1-.375-.118l-.464-.306a2.485,2.485,0,0,1-1.046-2.4l.553-4a.7.7,0,0,1,.78-.612.717.717,0,0,1,.582.819l-.553,4a1.028,1.028,0,0,0,.425.977l.464.316a.736.736,0,0,1,.207,1,.662.662,0,0,1-.573.326" transform="translate(-21.406 -34.472)"/></clipPath><clipPath id="r"><path d="M22.916,46.044a7.454,7.454,0,0,1-2.981-.652.74.74,0,0,1-.336-.958.678.678,0,0,1,.918-.355,5.338,5.338,0,0,0,4.4.02.676.676,0,0,1,.938.3.738.738,0,0,1-.276.977,5.367,5.367,0,0,1-2.666.671" transform="translate(-19.536 -44.012)"/></clipPath><clipPath id="t"><path d="M19.489,32.945H19.44l-3.12-.207a.831.831,0,0,1-.75-.9.819.819,0,0,1,.859-.79l3.12.207a.847.847,0,0,1-.059,1.688" transform="translate(-15.568 -31.048)"/></clipPath><clipPath id="v"><path d="M26.54,32.955a.814.814,0,0,1-.8-.79.831.831,0,0,1,.75-.9l3.12-.227a.817.817,0,0,1,.859.78.831.831,0,0,1-.75.9l-3.12.227c-.02,0-.039.01-.059.01" transform="translate(-25.738 -31.038)"/></clipPath><clipPath id="x"><path d="M22.624,14.18c-16.457,0-13.4,18.511-13.4,18.511a.12.12,0,0,1,.049-.01,6.792,6.792,0,0,1,1-4.235s3.357-3.228,12.35-3.228S34.9,28.011,35.586,28.732c.6.642.839,1.994.829,3.623h.01c0,.01,2.666-18.175-13.8-18.175" transform="translate(-9.002 -14.18)"/></clipPath><clipPath id="z"><path d="M35.59,28.753c-.681-.75-3.969-3.633-12.962-3.633s-12.34,3.327-12.34,3.327a7.059,7.059,0,0,0-1,4.373,32.055,32.055,0,0,0,2.142,9.25,1.366,1.366,0,0,0,.76.592,3.035,3.035,0,0,0,4.156-2.182,1.453,1.453,0,0,0,0-.8A21.611,21.611,0,0,1,14.73,32.7a4.179,4.179,0,0,1,1.1-3.2c3.11-2.8,10.662-2.28,13.693-.267.81.543,1.1,1.8,1.086,3.307a30.3,30.3,0,0,1-1.323,7.4,1.733,1.733,0,0,0,.059,1A2.688,2.688,0,0,0,32.3,42.762c.889-.138,1.856-.4,2.1-.908a24.939,24.939,0,0,0,2-9.359c.02-1.688-.217-3.08-.819-3.742" transform="translate(-9.282 -25.12)"/></clipPath><clipPath id="ab"><path d="M24.689,20.71H20.741a.748.748,0,0,1-.731-.76V12.21a.742.742,0,0,1,.731-.76h3.949a.748.748,0,0,1,.731.76v7.74a.748.748,0,0,1-.731.76" transform="translate(-20.01 -11.45)"/></clipPath><clipPath id="ad"><path d="M45.85,65.222a7.6,7.6,0,0,0-4.531-7.029c-1.817-.77-3.633-1.5-5.43-2.32L31.328,53.79l-1.283,1.4A9.483,9.483,0,0,1,15.7,54.925V78.708H45.86V65.222Z" transform="translate(-15.7 -53.79)"/></clipPath><clipPath id="af"><path d="M14.522,53.79,9.961,55.873c-1.787.819-3.6,1.55-5.41,2.31A7.583,7.583,0,0,0,0,65.222V78.708H15.49V54.925Z" transform="translate(0 -53.79)"/></clipPath><clipPath id="ah"><path d="M15.6,48.71a4.939,4.939,0,0,0-2.912,6.94v.01l2.952,5.983V48.7c-.01,0-.03.01-.039.01" transform="translate(-12.164 -48.7)"/></clipPath><clipPath id="aj"><path d="M13.476,55.881l-.217-1.5L9.951,55.89c-1.787.819-3.6,1.55-5.41,2.31A7.581,7.581,0,0,0,0,65.23V78.715H2.587V66.385a7.2,7.2,0,0,1,3.534-6.259Z" transform="translate(0 -54.38)"/></clipPath><clipPath id="al"><path d="M31.538,53.79,36.1,55.873c1.787.819,3.6,1.55,5.41,2.31a7.583,7.583,0,0,1,4.551,7.039V78.708H30.58V54.925Z" transform="translate(-30.58 -53.79)"/></clipPath><clipPath id="an"><path d="M30.629,48.71a4.939,4.939,0,0,1,2.912,6.94v.01L30.59,61.643V48.7c.01,0,.02.01.039.01" transform="translate(-30.59 -48.7)"/></clipPath><clipPath id="ap"><rect width="13.476" height="24.335"/></clipPath><clipPath id="aq"><rect width="16.635" height="33.27"/></clipPath><clipPath id="ar"><path d="M32.62,55.881l.217-1.5,3.307,1.51c1.787.819,3.6,1.55,5.41,2.31a7.583,7.583,0,0,1,4.551,7.039V78.725H43.519V66.385a7.2,7.2,0,0,0-3.534-6.259Z" transform="translate(-32.62 -54.38)"/></clipPath><clipPath id="at"><path d="M55.183,9,38.43,21.8l48.888.563L69.932,10.51Z" transform="translate(-38.43 -9)"/></clipPath><clipPath id="av"><ellipse cx="24.947" cy="5.193" rx="24.947" ry="5.193"/></clipPath><clipPath id="ax"><path d="M40.084,70.605a2.569,2.569,0,1,1-2.567-2.675,2.618,2.618,0,0,1,2.567,2.675" transform="translate(-34.95 -67.93)"/></clipPath><clipPath id="az"><rect width="36.231" height="37.831"/></clipPath><clipPath id="ba"><rect width="44.356" height="44.356"/></clipPath><clipPath id="bb"><path d="M78.343,18.752c1.372-2.35-.474-3.988-2.725-5.42a4.615,4.615,0,0,0-2.606-.731,4.892,4.892,0,0,0-4.65-5.1c-.918-.02-.681-1.195-1.461-.7A4.666,4.666,0,0,0,60.435,4.8,4.763,4.763,0,0,0,58.53,6.8c-2.251-1.431-4.166.247-5.538,2.6-.474.819-.079.4-.059,1.362a4.865,4.865,0,0,0-4.887,4.857c-.069,2.744-1.441,2.32-.967,3.13a5.091,5.091,0,0,0-1.905,6.753,4.88,4.88,0,0,0,1.905,1.994,5.108,5.108,0,0,0,1.58,6.842,4.615,4.615,0,0,0,2.606.731,4.892,4.892,0,0,0,4.65,5.1,4.636,4.636,0,0,0,2.606-.731,4.666,4.666,0,0,0,6.466,1.994,4.763,4.763,0,0,0,1.905-1.994,4.659,4.659,0,0,0,6.555-1.649,5.21,5.21,0,0,0,.7-2.715,4.865,4.865,0,0,0,4.887-4.857,5.094,5.094,0,0,0-.7-2.715,5.093,5.093,0,0,0,.01-8.747Z" transform="translate(-44.589 -4.196)"/></clipPath><clipPath id="bd"><path d="M39.366,57.043l15.45-7V37.92H70.3V50.043l15.45,6.249a9.4,9.4,0,0,1,6.486,9.043V78.327H32.89V66.086a9.377,9.377,0,0,1,6.476-9.043" transform="translate(-32.89 -37.92)"/></clipPath><clipPath id="bf"><path d="M39.366,57.21l12.9-5.815s10.277,8.954,19.873-.385l13.614,5.45A9.4,9.4,0,0,1,92.242,65.5V78.494H32.89V66.253a9.377,9.377,0,0,1,6.476-9.043" transform="translate(-32.89 -51.01)"/></clipPath><clipPath id="bh"><path d="M78.562,31.282c0-2.478-1.451-4.492-3.248-4.492H74.85v8.984h.464c1.8,0,3.248-2,3.248-4.492" transform="translate(-74.85 -26.79)"/></clipPath><clipPath id="bj"><path d="M50.508,35.774h.464V26.79h-.464c-1.8,0-3.248,2.014-3.248,4.492s1.451,4.492,3.248,4.492" transform="translate(-47.26 -26.79)"/></clipPath><clipPath id="bl"><path d="M53.383,41.483l-.286-.454a17.094,17.094,0,0,1-2.606-9.063V24.611a12.291,12.291,0,0,1,24.582,0v7.355a17.007,17.007,0,0,1-2.606,9.063l-.286.454a11.1,11.1,0,0,1-18.8,0" transform="translate(-50.49 -12.35)"/></clipPath><clipPath id="bn"><path d="M67.49,30.361a1.423,1.423,0,1,0,1.422-1.491,1.463,1.463,0,0,0-1.422,1.491" transform="translate(-67.49 -28.87)"/></clipPath><clipPath id="bp"><path d="M55.57,30.551a1.423,1.423,0,1,0,1.422-1.491,1.463,1.463,0,0,0-1.422,1.491" transform="translate(-55.57 -29.06)"/></clipPath><clipPath id="br"><path d="M64.044,36.9a.712.712,0,0,1-.395-.118l-.494-.336A2.631,2.631,0,0,1,62.04,33.9l.582-4.255a.741.741,0,0,1,.829-.652.761.761,0,0,1,.622.869l-.582,4.255a1.059,1.059,0,0,0,.454,1.037l.494.326a.781.781,0,0,1,.217,1.066.725.725,0,0,1-.612.355" transform="translate(-62.014 -28.982)"/></clipPath><clipPath id="bt"><path d="M63.083,42.7a8.848,8.848,0,0,0,3.534-.77.86.86,0,0,0,.395-1.135.8.8,0,0,0-1.086-.415c-.03.02-2.883,1.353-5.222.03a.808.808,0,0,0-1.116.346.867.867,0,0,0,.326,1.155,6.487,6.487,0,0,0,3.169.79" transform="translate(-59.488 -40.3)"/></clipPath><clipPath id="bv"><path d="M67.168,27.181h.059l3.692-.247a.983.983,0,0,0,.889-1.056.959.959,0,0,0-1.017-.928L67.1,25.2a.983.983,0,0,0-.889,1.056.994.994,0,0,0,.958.928" transform="translate(-66.207 -24.947)"/></clipPath><clipPath id="bx"><path d="M58.82,27.181a1,1,0,0,0,.069-1.994L55.2,24.92a.971.971,0,0,0-1.017.928.986.986,0,0,0,.889,1.066l3.692.267h.059" transform="translate(-54.177 -24.918)"/></clipPath><clipPath id="bz"><path d="M49.28,21.258s5.992.918,6.585-4.038c0,0,4.847,1.55,6.634-1.965a6.8,6.8,0,0,0,6.535,2.587s.592,4.235,5.637,2.794l3.07-.415-4.156-7.858L69.627,10.4l-9.2-.928-2.972,1.965s-3.268,1.441-3.564,1.649-3.366,4.443-3.366,4.443Z" transform="translate(-49.28 -9.47)"/></clipPath><clipPath id="cb"><path d="M62.208,37.21h.049a1.541,1.541,0,0,1,1.372,1.678,1.514,1.514,0,0,1-1.471,1.431l-.2-.01a5.87,5.87,0,0,0-1.974.237,2.325,2.325,0,0,0-1.224.77l-.079.128a1.459,1.459,0,0,1-2.044.573,1.6,1.6,0,0,1-.553-2.132,5.031,5.031,0,0,1,3.031-2.33,8.62,8.62,0,0,1,2.656-.375Z" transform="translate(-55.891 -37.179)"/></clipPath><clipPath id="cd"><path d="M64.52,37.19a7.133,7.133,0,0,1,3.337.5,5.671,5.671,0,0,1,2.577,2.083,1.606,1.606,0,0,1-.355,2.172,1.455,1.455,0,0,1-1.994-.257L68,41.573a2.706,2.706,0,0,0-1.234-.987,4.483,4.483,0,0,0-1.767-.306l-.316.02a1.5,1.5,0,0,1-1.688-1.323,1.559,1.559,0,0,1,1.274-1.767l.158-.02A.167.167,0,0,0,64.52,37.19Z" transform="translate(-62.974 -37.162)"/></clipPath><clipPath id="cf"><path d="M75.255,52.254l.059-.059L72.353,51.01c-9.586,9.339-19.873.385-19.873.385l-3.12,1.412a17.9,17.9,0,0,0,12.4,5.272c-.01,0,7.088.869,13.5-5.825" transform="translate(-49.36 -51.01)"/></clipPath><clipPath id="ch"><path d="M37.41,22.268l.573-.336a48.6,48.6,0,0,1,49.312.336l-22.2-20.13A3.544,3.544,0,0,0,60.373,2.1Z" transform="translate(-37.41 -1.219)"/></clipPath><clipPath id="cj"><path d="M48,14.653q14.083-5.642,30.377-.01a.53.53,0,0,1,.316.661.484.484,0,0,1-.632.326q-15.964-5.524-29.706-.01a.493.493,0,0,1-.642-.3A.526.526,0,0,1,48,14.653Z" transform="translate(-47.676 -11.831)"/></clipPath><clipPath id="cl"><path d="M55.236,8.485A25.469,25.469,0,0,1,70.3,8.475a.518.518,0,0,1,.355.632.493.493,0,0,1-.612.365,24.439,24.439,0,0,0-14.512-.01.467.467,0,0,1-.612-.326A.523.523,0,0,1,55.236,8.485Z" transform="translate(-54.894 -7.344)"/></clipPath><clipPath id="cn"><path d="M60.581,3.917a.489.489,0,0,1,.691-.148.54.54,0,0,1,.188.642l-.049.079-6.822,10.83a.489.489,0,0,1-.691.148.54.54,0,0,1-.188-.642l.039-.079Z" transform="translate(-53.672 -3.684)"/></clipPath><clipPath id="cp"><path d="M64.577,3.739a.479.479,0,0,1,.622.148l.049.079,5.371,10.919a.527.527,0,0,1-.217.7.479.479,0,0,1-.622-.148l-.049-.079L64.359,4.44A.539.539,0,0,1,64.577,3.739Z" transform="translate(-64.307 -3.681)"/></clipPath></defs><g transform="translate(-555 228)"><rect width="92" height="72" transform="translate(555 -228)" fill="none"/><g transform="translate(555 -228)" clip-path="url(#a)"><g transform="translate(0 0)"><g transform="translate(22.983 46.355)"><g clip-path="url(#b)"><g transform="translate(-187.761 -198.239)" clip-path="url(#c)"><rect width="66.144" height="62.926" transform="translate(160.04 170.524)" fill="#005c99"/></g></g></g><g transform="translate(11.994 46.355)"><g clip-path="url(#d)"><g transform="translate(-176.773 -198.239)" clip-path="url(#c)"><rect width="66.144" height="62.926" transform="translate(149.052 170.524)" fill="#005c99"/></g></g></g><g transform="translate(0 44.318)"><g clip-path="url(#f)"><g transform="translate(-164.778 -196.202)" clip-path="url(#c)"><rect width="101.092" height="87.942" transform="translate(137.057 168.481)" fill="#ffb490"/></g></g></g><g transform="translate(0 51.9)"><g clip-path="url(#h)"><g transform="translate(-164.778 -203.784)" clip-path="url(#c)"><rect width="101.092" height="80.36" transform="translate(137.057 176.063)" fill="#cfd454"/></g></g></g><g transform="translate(12.449 19.41)"><g clip-path="url(#j)"><g transform="translate(-177.227 -171.294)" clip-path="url(#c)"><rect width="76.194" height="84.408" transform="translate(149.506 143.583)" fill="#ffdab8"/></g></g></g><g transform="translate(16.625 32.738)"><g clip-path="url(#l)"><g transform="translate(-181.403 -184.622)" clip-path="url(#c)"><rect width="57.842" height="57.95" transform="translate(153.692 156.9)" fill="#005c99"/></g></g></g><g transform="translate(26.32 32.896)"><g clip-path="url(#n)"><g transform="translate(-191.098 -184.78)" clip-path="url(#c)"><rect width="57.842" height="57.95" transform="translate(163.386 157.058)" fill="#005c99"/></g></g></g><g transform="translate(21.133 32.829)"><g clip-path="url(#p)"><g transform="translate(-185.911 -184.713)" clip-path="url(#c)"><rect width="58.049" height="62.887" transform="translate(158.194 156.989)" fill="#ffb490"/></g></g></g><g transform="translate(19.287 42.247)"><g clip-path="url(#r)"><g transform="translate(-184.065 -194.131)" clip-path="url(#c)"><rect width="61.85" height="57.477" transform="translate(156.338 166.417)" fill="#ffb490"/></g></g></g><g transform="translate(15.369 29.449)"><g clip-path="url(#t)"><g transform="translate(-180.148 -181.333)" clip-path="url(#c)"><rect width="60.172" height="57.338" transform="translate(152.428 153.613)" fill="#0087d9"/></g></g></g><g transform="translate(25.409 29.439)"><g clip-path="url(#v)"><g transform="translate(-190.188 -181.323)" clip-path="url(#c)"><rect width="60.172" height="57.348" transform="translate(162.458 153.603)" fill="#0087d9"/></g></g></g><g transform="translate(8.887 12.796)"><g clip-path="url(#x)"><g transform="translate(-173.666 -164.68)" clip-path="url(#c)"><rect width="83.016" height="73.953" transform="translate(145.952 136.958)" fill="#00b74f"/></g></g></g><g transform="translate(9.163 23.596)"><g clip-path="url(#z)"><g transform="translate(-173.942 -175.48)" clip-path="url(#c)"><rect width="82.582" height="73.243" transform="translate(146.219 147.759)" fill="#97d700"/></g></g></g><g transform="translate(19.754 10.101)"><g clip-path="url(#ab)"><g transform="translate(-184.533 -161.985)" clip-path="url(#c)"><rect width="60.853" height="64.703" transform="translate(156.802 134.253)" fill="#fff"/></g></g></g><g transform="translate(15.5 51.9)"><g clip-path="url(#ad)"><g transform="translate(-180.278 -203.784)" clip-path="url(#c)"><rect width="85.603" height="80.36" transform="translate(152.547 176.063)" fill="#97d700"/></g></g></g><g transform="translate(0 51.9)"><g clip-path="url(#af)"><g transform="translate(-164.778 -203.784)" clip-path="url(#c)"><rect width="70.932" height="80.36" transform="translate(137.057 176.063)" fill="#00b74f"/></g></g></g><g transform="translate(12.009 46.875)"><g clip-path="url(#ah)"><g transform="translate(-176.787 -198.759)" clip-path="url(#c)"><rect width="58.918" height="68.385" transform="translate(149.062 171.038)" fill="#005c99"/></g></g></g><g transform="translate(0 52.482)"><g clip-path="url(#aj)"><g transform="translate(-164.778 -204.366)" clip-path="url(#c)"><rect width="68.918" height="79.778" transform="translate(137.057 176.645)" fill="#005c99"/></g></g></g><g transform="translate(30.189 51.9)"><g clip-path="url(#al)"><g transform="translate(-194.968 -203.784)" clip-path="url(#c)"><rect width="70.932" height="80.36" transform="translate(167.247 176.063)" fill="#00b74f"/></g></g></g><g transform="translate(30.199 46.875)"><g clip-path="url(#an)"><g transform="translate(-194.978 -198.759)" clip-path="url(#c)"><rect width="58.918" height="68.385" transform="translate(167.247 171.038)" fill="#005c99"/></g></g></g><g transform="translate(32.203 52.482)"><g clip-path="url(#ap)"><g transform="translate(-2.932 -4.778)"><g clip-path="url(#aq)"><g transform="translate(2.932 4.778)" clip-path="url(#ar)"><g transform="translate(-2.932 -4.778)" clip-path="url(#aq)"><rect width="68.918" height="79.778" transform="translate(-24.789 -22.943)" fill="#005c99"/></g></g></g></g></g></g><g transform="translate(37.939 7.682)"><g clip-path="url(#at)"><g transform="translate(-202.718 -158.579)" clip-path="url(#c)"><rect width="104.33" height="68.81" transform="translate(174.996 130.857)" fill="#f1a201"/></g></g></g><g transform="translate(36.922 16.478)"><g clip-path="url(#av)"><g transform="translate(-201.701 -167.375)" clip-path="url(#c)"><rect width="105.337" height="65.838" transform="translate(173.979 139.644)" fill="#f1af01"/></g></g></g><g transform="translate(34.504 65.859)"><g clip-path="url(#ax)"><g transform="translate(-199.282 -217.743)" clip-path="url(#c)"><rect width="60.576" height="60.794" transform="translate(171.561 190.022)" fill="#fff"/></g></g></g><g transform="translate(44.03 2.953)"><g clip-path="url(#az)"><g transform="translate(-3.672 -4.156)"><g clip-path="url(#ba)"><g transform="translate(3.662 4.142)" clip-path="url(#bb)"><g transform="translate(-3.662 -4.142)" clip-path="url(#ba)"><rect width="91.674" height="93.273" transform="translate(-24.049 -23.565)" fill="#005c99"/></g></g></g></g></g></g><g transform="translate(32.47 36.233)"><g clip-path="url(#bd)"><g transform="translate(-197.248 -188.117)" clip-path="url(#c)"><rect width="114.785" height="95.86" transform="translate(169.527 160.395)" fill="#ffb490"/></g></g></g><g transform="translate(32.47 49.155)"><g clip-path="url(#bf)"><g transform="translate(-197.248 -201.039)" clip-path="url(#c)"><rect width="114.785" height="82.937" transform="translate(169.527 173.318)" fill="#d0df00"/></g></g></g><g transform="translate(73.894 25.245)"><g clip-path="url(#bh)"><g transform="translate(-238.673 -176.142)" clip-path="url(#c)"><rect width="59.155" height="64.427" transform="translate(210.951 148.42)" fill="#ffb490"/></g></g></g><g transform="translate(46.656 25.245)"><g clip-path="url(#bj)"><g transform="translate(-211.435 -176.142)" clip-path="url(#c)"><rect width="59.155" height="64.427" transform="translate(183.714 148.42)" fill="#ffb490"/></g></g></g><g transform="translate(49.845 10.989)"><g clip-path="url(#bl)"><g transform="translate(-214.624 -161.886)" clip-path="url(#c)"><rect width="80.025" height="89.759" transform="translate(186.912 134.174)" fill="#ffdab8"/></g></g></g><g transform="translate(66.628 27.298)"><g clip-path="url(#bn)"><g transform="translate(-231.407 -178.195)" clip-path="url(#c)"><rect width="58.286" height="58.414" transform="translate(203.685 150.483)" fill="#005c99"/></g></g></g><g transform="translate(54.86 27.486)"><g clip-path="url(#bp)"><g transform="translate(-219.639 -178.383)" clip-path="url(#c)"><rect width="58.286" height="58.414" transform="translate(191.917 150.671)" fill="#005c99"/></g></g></g><g transform="translate(61.222 27.409)"><g clip-path="url(#br)"><g transform="translate(-226.001 -178.306)" clip-path="url(#c)"><rect width="58.207" height="63.36" transform="translate(198.275 150.582)" fill="#ffb490"/></g></g></g><g transform="translate(58.729 38.583)"><g clip-path="url(#bt)"><g transform="translate(-223.507 -189.479)" clip-path="url(#c)"><rect width="63.035" height="57.842" transform="translate(195.797 161.758)" fill="#ffb490"/></g></g></g><g transform="translate(65.362 23.426)"><g clip-path="url(#bv)"><g transform="translate(-230.14 -174.322)" clip-path="url(#c)"><rect width="61.05" height="57.684" transform="translate(202.431 146.584)" fill="#005c99"/></g></g></g><g transform="translate(53.485 23.397)"><g clip-path="url(#bx)"><g transform="translate(-218.264 -174.294)" clip-path="url(#c)"><rect width="61.04" height="57.704" transform="translate(190.545 146.574)" fill="#005c99"/></g></g></g><g transform="translate(48.651 8.146)"><g clip-path="url(#bz)"><g transform="translate(-213.429 -159.043)" clip-path="url(#c)"><rect width="83.905" height="67.299" transform="translate(185.708 131.321)" fill="#005c99"/></g></g></g><g transform="translate(55.177 35.501)"><g clip-path="url(#cb)"><g transform="translate(-219.955 -186.398)" clip-path="url(#c)"><rect width="63.183" height="60.488" transform="translate(192.233 158.687)" fill="#005c99"/></g></g></g><g transform="translate(62.17 35.485)"><g clip-path="url(#cd)"><g transform="translate(-226.949 -186.381)" clip-path="url(#c)"><rect width="63.183" height="60.507" transform="translate(199.223 158.668)" fill="#005c99"/></g></g></g><g transform="translate(48.73 49.155)"><g clip-path="url(#cf)"><g transform="translate(-213.508 -201.039)" clip-path="url(#c)"><rect width="81.397" height="62.551" transform="translate(185.777 173.318)" fill="#00b74f"/></g></g></g><g transform="translate(36.932 0)"><g clip-path="url(#ch)"><g transform="translate(-201.711 -150.897)" clip-path="url(#c)"><rect width="105.337" height="76.481" transform="translate(173.989 123.177)" fill="#ffd24f"/></g></g></g><g transform="translate(47.067 10.477)"><g clip-path="url(#cj)"><g transform="translate(-211.846 -161.374)" clip-path="url(#c)"><rect width="86.481" height="59.273" transform="translate(184.128 133.651)" fill="#f1af01"/></g></g></g><g transform="translate(54.193 6.047)"><g clip-path="url(#cl)"><g transform="translate(-218.971 -156.944)" clip-path="url(#c)"><rect width="71.229" height="57.605" transform="translate(191.246 129.218)" fill="#f1af01"/></g></g></g><g transform="translate(52.986 2.434)"><g clip-path="url(#cn)"><g transform="translate(-217.765 -153.33)" clip-path="url(#c)"><rect width="63.262" height="67.309" transform="translate(190.042 125.615)" fill="#f1af01"/></g></g></g><g transform="translate(63.486 2.431)"><g clip-path="url(#cp)"><g transform="translate(-228.265 -153.328)" clip-path="url(#c)"><rect width="61.81" height="67.398" transform="translate(200.546 125.615)" fill="#f1af01"/></g></g></g></g></g></g></svg>