<svg xmlns="http://www.w3.org/2000/svg" xmlns:xlink="http://www.w3.org/1999/xlink" width="100" height="80" viewBox="0 0 100 80">
    <defs>
        <path id="7gci51hg4a" d="M0 0L47.931 0 47.931 32.527 0 32.527z"/>
        <path id="j2nox7aaxc" d="M0 0L47.93 0 47.93 28.191 0 28.191z"/>
        <path id="9y62g1jmhe" d="M0 0L6.95 0 6.95 10.377 0 10.377z"/>
    </defs>
    <g fill="none" fill-rule="evenodd">
        <g>
            <g>
                <g>
                    <g>
                        <g>
                            <g transform="translate(-1149 -2148) translate(150 2044) translate(975 80) translate(24 24) translate(4 5) translate(0 37.048)">
                                <mask id="mifax31rrb" fill="#fff">
                                    <use xlink:href="#7gci51hg4a"/>
                                </mask>
                                <path fill="#F7C590" d="M4.78 11.985c1.898-.758 3.804-1.492 5.676-2.307l4.795-2.089 3.268-3.252V0h10.893v4.337l3.268 3.252 4.795 2.089c1.872.815 3.778 1.549 5.675 2.307 2.848 1.139 4.78 3.904 4.78 7.043v13.5H0v-13.5c0-3.14 1.934-5.904 4.78-7.043" mask="url(#mifax31rrb)"/>
                            </g>
                            <g transform="translate(-1149 -2148) translate(150 2044) translate(975 80) translate(24 24) translate(4 5) translate(0 41.384)">
                                <mask id="98scxau4kd" fill="#fff">
                                    <use xlink:href="#j2nox7aaxc"/>
                                </mask>
                                <path fill="#D0DF00" d="M4.76 7.657c1.902-.767 3.82-1.499 5.701-2.318l4.79-2.086L18.519 0l5.446 4.337L29.412 0l3.268 3.253 4.794 2.087c1.872.816 3.78 1.55 5.676 2.309 2.848 1.138 4.78 3.903 4.78 7.042v13.5H0v-13.5c0-3.132 1.923-5.89 4.76-7.034" mask="url(#98scxau4kd)"/>
                            </g>
                            <path fill="#0087D9" d="M37.165 61.138h-2.597c-.278 0-.503-.224-.503-.5V45.792c0-.352.357-.595.687-.465l2.596 1.018c.193.076.319.26.319.466v13.827c0 .276-.225.5-.502.5" transform="translate(-1149 -2148) translate(150 2044) translate(975 80) translate(24 24) translate(4 5)"/>
                            <path fill="#0087D9" d="M40.695 69.526H7.235V59.268c0-.48.391-.869.873-.869h31.715c.481 0 .872.39.872.869v10.258z" transform="translate(-1149 -2148) translate(150 2044) translate(975 80) translate(24 24) translate(4 5)"/>
                            <path fill="#F8B78B" d="M37.672 26.849c0-2.096-1.288-3.795-2.876-3.795h-.411v7.59h.41c1.589 0 2.877-1.7 2.877-3.795" transform="translate(-1149 -2148) translate(150 2044) translate(975 80) translate(24 24) translate(4 5)"/>
                            <path fill="#F7C590" d="M13.116 30.643h.41v-7.589h-.41c-1.588 0-2.876 1.699-2.876 3.794 0 2.096 1.288 3.795 2.876 3.795" transform="translate(-1149 -2148) translate(150 2044) translate(975 80) translate(24 24) translate(4 5)"/>
                            <path fill="#FFDDB9" d="M15.632 35.625l-.25-.381c-1.51-2.296-2.31-4.949-2.31-7.656v-6.214c0-5.72 4.877-10.357 10.893-10.357 6.017 0 10.893 4.637 10.893 10.357v6.214c0 2.707-.8 5.36-2.308 7.656l-.252.38c-1.795 2.732-4.944 4.392-8.333 4.392-3.388 0-6.537-1.66-8.333-4.391" transform="translate(-1149 -2148) translate(150 2044) translate(975 80) translate(24 24) translate(4 5)"/>
                            <path fill="#005C99" d="M17.424 13.478c-.088 2.62-1.365 5.068-3.48 6.647l-.872.65V14.27c0-2.395 1.95-4.336 4.357-4.336.65-1.943 1.356-3.254 3.414-3.253h6.348c2.102 0 3.398 1.522 3.807 3.281 2.173.245 3.86 2.08 3.86 4.308v6.506l-.87-.65c-2.195-1.639-3.487-4.21-3.487-6.94H17.429z" transform="translate(-1149 -2148) translate(150 2044) translate(975 80) translate(24 24) translate(4 5)"/>
                            <path fill="#97D700" d="M23.965 45.722L27.233 51.143 32.68 44.637 29.412 41.385zM15.251 44.637L20.697 51.143 23.965 45.722 18.519 41.385z" transform="translate(-1149 -2148) translate(150 2044) translate(975 80) translate(24 24) translate(4 5)"/>
                            <path fill="#F7C590" d="M24.805 31.886c-.134 0-.27-.036-.392-.114l-.487-.312c-.805-.515-1.239-1.458-1.102-2.403l.577-4.004c.057-.395.425-.668.822-.613.398.056.673.423.616.819l-.577 4.004c-.055.385.12.77.45.98l.487.312c.337.216.435.663.218 1-.14.214-.373.331-.612.331M24.13 35.903c1.691 0 3.046-.613 3.132-.653.364-.167.521-.597.352-.96-.168-.361-.599-.52-.963-.352-.027.013-2.553 1.139-4.627.021-.353-.19-.793-.06-.984.292-.192.35-.06.79.292.98.936.504 1.913.672 2.797.672" transform="translate(-1149 -2148) translate(150 2044) translate(975 80) translate(24 24) translate(4 5)"/>
                            <path fill="#005C99" d="M27.673 22.953c.018 0 .036 0 .056-.002l3.271-.21c.467-.03.822-.43.791-.896-.03-.464-.429-.814-.9-.787l-3.272.21c-.467.03-.821.43-.791.896.029.446.402.79.845.79M20.224 22.927c.442-.01.807-.356.829-.803.023-.465-.338-.86-.806-.883l-3.275-.158c-.466-.018-.865.336-.887.801-.023.466.337.862.806.885l3.273.158h.06" transform="translate(-1149 -2148) translate(150 2044) translate(975 80) translate(24 24) translate(4 5)"/>
                            <path fill="#79C4F2" d="M32.826 30.995h-4.392c-.685 0-1.326-.34-1.707-.909l-.977-1.46c-.38-.568-1.021-.91-1.707-.91-.686 0-1.327.342-1.707.91l-.978 1.46c-.38.568-1.021.909-1.707.909H15.26c-1.212 0-2.196-.978-2.196-2.185V24.44c0-1.207.984-2.186 2.196-2.186h17.566c1.212 0 2.195.979 2.195 2.186v4.371c0 1.207-.983 2.185-2.195 2.185" transform="translate(-1149 -2148) translate(150 2044) translate(975 80) translate(24 24) translate(4 5)"/>
                            <path fill="#0087D9" d="M27.944 25.605c0 .693.565 1.256 1.261 1.256.698 0 1.263-.563 1.263-1.256 0-.694-.565-1.256-1.263-1.256-.696 0-1.26.562-1.261 1.256M17.42 25.763c0 .693.566 1.256 1.263 1.256.696 0 1.261-.563 1.261-1.256 0-.694-.565-1.256-1.261-1.256-.697 0-1.262.562-1.262 1.256" transform="translate(-1149 -2148) translate(150 2044) translate(975 80) translate(24 24) translate(4 5)"/>
                            <path fill="#97D700" fill-rule="nonzero" d="M25.125 45.772L25.125 58.317 22.8 58.317 22.8 45.772z" transform="translate(-1149 -2148) translate(150 2044) translate(975 80) translate(24 24) translate(4 5)"/>
                            <path fill="#0087D9" d="M12.672 61.138h-2.597c-.278 0-.503-.224-.503-.5V46.81c0-.206.127-.39.319-.466l2.597-1.018c.33-.13.687.113.687.465v14.846c0 .276-.225.5-.503.5" transform="translate(-1149 -2148) translate(150 2044) translate(975 80) translate(24 24) translate(4 5)"/>
                            <path fill="#D0DF00" d="M12.899 62.645c0 .846-.69 1.533-1.54 1.533-.851 0-1.54-.687-1.54-1.533 0-.847.689-1.534 1.54-1.534.85 0 1.54.687 1.54 1.534" transform="translate(-1149 -2148) translate(150 2044) translate(975 80) translate(24 24) translate(4 5)"/>
                            <path fill="#F7C590" d="M41.853 47.776L56.8 43.4V32.217h14.98V43.4l14.947 4.377C90.445 48.866 93 52.261 93 56.12v13.372H35.58V56.119c0-3.859 2.554-7.255 6.273-8.343" transform="translate(-1149 -2148) translate(150 2044) translate(975 80) translate(24 24) translate(4 5)"/>
                            <path fill="#005C99" d="M41.853 47.776L56.8 43.4c4.095 4.218 10.886 4.218 14.98 0l14.947 4.377C90.445 48.866 93 52.261 93 56.12v13.372H35.58V56.119c0-3.859 2.554-7.255 6.273-8.343" transform="translate(-1149 -2148) translate(150 2044) translate(975 80) translate(24 24) translate(4 5)"/>
                            <path fill="#F7C590" d="M79.256 25.319c0-2.288-1.406-4.143-3.14-4.143h-.45v8.285h.45c1.734 0 3.14-1.855 3.14-4.142M52.451 29.461h.449v-8.285h-.449c-1.734 0-3.14 1.855-3.14 4.143s1.406 4.142 3.14 4.142" transform="translate(-1149 -2148) translate(150 2044) translate(975 80) translate(24 24) translate(4 5)"/>
                            <path fill="#FFDDB9" d="M55.197 34.898l-.273-.416c-1.648-2.506-2.521-5.402-2.521-8.357v-6.782c0-6.244 5.324-11.306 11.891-11.306S76.185 13.1 76.185 19.343v6.782c0 2.955-.873 5.851-2.52 8.357l-.275.416c-1.96 2.982-5.397 4.793-9.096 4.793s-7.136-1.811-9.097-4.793" transform="translate(-1149 -2148) translate(150 2044) translate(975 80) translate(24 24) translate(4 5)"/>
                            <path fill="#5CA254" d="M71.428 6.854c2.628 0 4.757 2.12 4.757 4.734v7.101l-.951-.71c-2.395-1.788-3.806-4.594-3.806-7.575v-3.55zM57.16 6.854c-2.628 0-4.757 2.12-4.757 4.734v7.101l.951-.71c2.396-1.788 3.805-4.594 3.805-7.575v-3.55z" transform="translate(-1149 -2148) translate(150 2044) translate(975 80) translate(24 24) translate(4 5)"/>
                            <path fill="#005C99" d="M68.637 24.446c0 .757.617 1.37 1.377 1.37.761 0 1.377-.613 1.377-1.37 0-.758-.616-1.371-1.377-1.371-.76.001-1.376.614-1.377 1.37M57.246 24.618c0 .758.617 1.371 1.377 1.371.761 0 1.378-.613 1.378-1.37 0-.758-.617-1.371-1.378-1.371-.76 0-1.376.613-1.377 1.37" transform="translate(-1149 -2148) translate(150 2044) translate(975 80) translate(24 24) translate(4 5)"/>
                            <path fill="#F7C590" d="M65.435 31.303c-.146 0-.295-.04-.427-.126l-.532-.34c-.88-.562-1.352-1.592-1.204-2.622l.63-4.371c.063-.432.465-.73.898-.67.434.062.735.463.673.894l-.63 4.371c-.06.42.132.841.49 1.07l.532.34c.369.236.476.725.238 1.091-.15.235-.407.363-.668.363M64.473 35.687c1.847 0 3.326-.669 3.419-.712.397-.183.57-.652.385-1.048-.184-.395-.654-.567-1.051-.384-.03.013-2.787 1.243-5.05.023-.386-.208-.867-.065-1.076.317-.208.384-.065.863.32 1.07 1.021.551 2.088.734 3.053.734" transform="translate(-1149 -2148) translate(150 2044) translate(975 80) translate(24 24) translate(4 5)"/>
                            <path fill="#00B74F" d="M68.342 21.551l.06-.001 3.571-.229c.51-.033.897-.471.864-.979-.032-.507-.469-.89-.983-.86l-3.571.229c-.51.034-.897.471-.864.979.032.488.438.861.923.861M60.414 21.56c.482 0 .889-.373.923-.858.034-.508-.35-.948-.86-.983l-3.57-.244c-.51-.03-.953.348-.988.856-.034.507.35.947.86.982l3.57.244.065.002" transform="translate(-1149 -2148) translate(150 2044) translate(975 80) translate(24 24) translate(4 5)"/>
                            <path fill="#00B74F" d="M77.131 19.055L76.192 24.85 71.434 16.999 57.036 17.124 52.279 24.663 51.558 17.644 57.036 15.753 68.43 15.317 72.436 15.815 76.192 16.999z" transform="translate(-1149 -2148) translate(150 2044) translate(975 80) translate(24 24) translate(4 5)"/>
                            <path fill="#FFD03E" d="M55.034 5.934c.135-.139.277-.275.42-.407 2.245-2.07 5.192-3.221 8.253-3.221h1.187c6.71 0 12.149 5.414 12.149 12.092v4.05H51.558v-4.05c-.004-3.167 1.245-6.208 3.476-8.464" transform="translate(-1149 -2148) translate(150 2044) translate(975 80) translate(24 24) translate(4 5)"/>
                            <path fill="#F1BD2A" d="M48.086 17.48c-.058-1.366 1.037-2.491 2.397-2.491h27.635c1.36 0 2.455 1.125 2.397 2.49-.051 1.23-1.079 2.198-2.31 2.286l-12.553.892c-.9.064-1.803.064-2.703 0l-12.552-.892c-1.233-.088-2.26-1.057-2.311-2.285" transform="translate(-1149 -2148) translate(150 2044) translate(975 80) translate(24 24) translate(4 5)"/>
                            <g transform="translate(-1149 -2148) translate(150 2044) translate(975 80) translate(24 24) translate(4 5) translate(60.825)">
                                <mask id="bqcvu6oxvf" fill="#fff">
                                    <use xlink:href="#9y62g1jmhe"/>
                                </mask>
                                <path fill="#F1BD2A" d="M0 3.46C0 1.548 1.556 0 3.476 0 5.394 0 6.95 1.549 6.95 3.46v6.917H0V3.459z" mask="url(#bqcvu6oxvf)"/>
                            </g>
                            <path fill="#F1BD2A" d="M73.568 5.934v5.596H71.25V4.093c.845.517 1.623 1.135 2.317 1.84M55.453 5.527c.584-.538 1.22-1.018 1.897-1.433v7.436h-2.316V5.933c.136-.138.276-.273.42-.406" transform="translate(-1149 -2148) translate(150 2044) translate(975 80) translate(24 24) translate(4 5)"/>
                            <path fill="#97D700" d="M73.28 43.857L64.6 57.886l-9.232-13.952c-.354-.536-1.016-.776-1.63-.592l-9.97 2.988c-.617.185-1.04.754-1.04 1.4v21.816h43.9V47.991c0-.638-.413-1.202-1.02-1.394l-10.654-3.362c-.635-.201-1.324.056-1.675.622" transform="translate(-1149 -2148) translate(150 2044) translate(975 80) translate(24 24) translate(4 5)"/>
                            <path fill="#FFF" d="M42.621 66.271L86.702 66.271 86.702 59.51 42.621 59.51zM64.064 70L65.292 70 65.292 69.402 64.064 69.402z" transform="translate(-1149 -2148) translate(150 2044) translate(975 80) translate(24 24) translate(4 5)"/>
                            <path fill="#00B74F" d="M64.601 57.805L65.292 56.693 65.292 69.402 64.063 69.402 64.063 56.998z" transform="translate(-1149 -2148) translate(150 2044) translate(975 80) translate(24 24) translate(4 5)"/>
                        </g>
                    </g>
                </g>
            </g>
        </g>
    </g>
</svg>
