<svg xmlns="http://www.w3.org/2000/svg" width="140" height="112" viewBox="0 0 140 112">
    <g fill="none" fill-rule="evenodd">
        <g>
            <g>
                <g>
                    <g>
                        <g>
                            <path fill="#97D700" d="M13.952 76.042V64.843c-.003-5.298 5.42-9.595 12.113-9.598H34.903c6.696 0 12.125 4.298 12.125 9.598v11.199H13.952z" transform="translate(-941 -486) translate(315 330) translate(613 156) translate(13) translate(4.2 5.6)"/>
                            <path fill="#005C99" d="M30.04 11.763c-6.13 2.603-13.081 8.994-8.34 24.647h31.928s5.052-17.927-8.252-24.351c-4.805-2.32-10.424-2.382-15.336-.296" transform="translate(-941 -486) translate(315 330) translate(613 156) translate(13) translate(4.2 5.6)"/>
                            <g fill="#F7C590">
                                <path d="M7.511 18.882c2.98-1.195 5.975-2.351 8.917-3.635l7.533-3.29 5.135-5.124V0H46.21v6.833l5.135 5.124 7.532 3.29c2.942 1.284 5.937 2.44 8.917 3.635 4.474 1.794 7.51 6.15 7.512 11.096v21.267H0V29.978c0-4.947 3.038-9.302 7.511-11.096" transform="translate(-941 -486) translate(315 330) translate(613 156) translate(13) translate(4.2 5.6) translate(0 49.209)"/>
                            </g>
                            <g fill="#00B74F">
                                <path d="M7.478 12.062c2.99-1.208 6.003-2.36 8.958-3.651l7.525-3.287L29.096 0l8.558 6.833L46.21 0l5.135 5.124 7.53 3.29c2.943 1.285 5.939 2.441 8.918 3.635 4.475 1.794 7.51 6.15 7.513 11.096v21.268H0V23.145c0-4.935 3.021-9.282 7.478-11.083" transform="translate(-941 -486) translate(315 330) translate(613 156) translate(13) translate(4.2 5.6) translate(0 56.042)"/>
                            </g>
                            <path fill="#D0DF00" d="M53.469 100.54V62.287c0-.566.571-.954 1.1-.746l7.301 3.025c.308.12.51.417.51.747v35.227H53.47zM22.908 100.54V62.287c0-.566-.572-.954-1.1-.746l-7.302 3.025c-.307.12-.51.417-.51.747v35.227h8.912z" transform="translate(-941 -486) translate(315 330) translate(613 156) translate(13) translate(4.2 5.6)"/>
                            <path fill="#F7C590" d="M56.958 35.328c0-2.769-1.813-5.014-4.05-5.014h-.58v10.027h.58c2.237 0 4.05-2.245 4.05-5.013M22.37 40.34h.578V30.316h-.578c-2.238 0-4.052 2.244-4.052 5.012 0 2.769 1.814 5.014 4.052 5.014" transform="translate(-941 -486) translate(315 330) translate(613 156) translate(13) translate(4.2 5.6)"/>
                            <path fill="#FFDDB9" d="M25.914 47.349l-.353-.519c-2.126-3.125-3.254-6.736-3.254-10.42v-8.457c0-7.787 6.87-14.097 15.345-14.097 8.474 0 15.344 6.31 15.344 14.097v8.457c0 3.684-1.127 7.295-3.253 10.42l-.353.519c-2.53 3.718-6.965 5.977-11.738 5.977s-9.209-2.259-11.738-5.977" transform="translate(-941 -486) translate(315 330) translate(613 156) translate(13) translate(4.2 5.6)"/>
                            <path fill="#005C99" d="M43.256 33.53c0 .979.796 1.774 1.777 1.774.982 0 1.778-.795 1.778-1.775 0-.979-.796-1.774-1.778-1.774-.98.002-1.776.795-1.777 1.774M28.433 33.753c0 .98.795 1.773 1.777 1.773.982 0 1.778-.793 1.778-1.773 0-.98-.796-1.774-1.778-1.774-.98 0-1.776.795-1.777 1.774" transform="translate(-941 -486) translate(315 330) translate(613 156) translate(13) translate(4.2 5.6)"/>
                            <path fill="#F7C590" d="M38.835 42.403c-.19 0-.382-.052-.552-.162l-.686-.44c-1.135-.728-1.745-2.06-1.554-3.395l.813-5.655c.08-.558.6-.944 1.158-.866.56.08.949.598.869 1.156l-.813 5.656c-.078.544.17 1.088.634 1.384l.685.441c.476.305.614.937.307 1.41-.195.305-.525.47-.86.47" transform="translate(-941 -486) translate(315 330) translate(613 156) translate(13) translate(4.2 5.6)"/>
                            <path fill="#005C99" d="M42.875 29.784c.025 0 .051 0 .077-.002l4.61-.296c.657-.043 1.156-.61 1.114-1.265-.042-.657-.605-1.153-1.268-1.113l-4.61.295c-.657.043-1.156.61-1.114 1.267.04.63.566 1.114 1.191 1.114M32.382 29.748c.621-.013 1.137-.504 1.168-1.135.03-.657-.477-1.216-1.135-1.247l-4.613-.223c-.658-.026-1.219.474-1.251 1.132-.032.657.476 1.216 1.135 1.248l4.613.223c.028.002.055.002.083.002" transform="translate(-941 -486) translate(315 330) translate(613 156) translate(13) translate(4.2 5.6)"/>
                            <path fill="#005C99" d="M37.085 17.656S31.452 30.087 21.78 30.314c0 0-.706-17.095 15.874-17.095 0 0 15.845-.88 15.845 17.095 0 0-13.11-5.544-16.413-12.658" transform="translate(-941 -486) translate(315 330) translate(613 156) translate(13) translate(4.2 5.6)"/>
                            <path fill="#F7C590" d="M38.037 48.473c-2.47 0-4.446-.896-4.57-.954-.531-.246-.762-.875-.515-1.406.246-.528.874-.76 1.405-.514.04.018 3.726 1.666 6.752.03.516-.279 1.158-.087 1.437.426.279.514.088 1.157-.428 1.435-1.365.738-2.79.983-4.081.983" transform="translate(-941 -486) translate(315 330) translate(613 156) translate(13) translate(4.2 5.6)"/>
                            <path fill="#97D700" d="M35.957 100.444L39.321 100.444 39.321 62.962 35.957 62.962z" transform="translate(-941 -486) translate(315 330) translate(613 156) translate(13) translate(4.2 5.6)"/>
                            <path fill="#005C99" d="M23.961 61.166L32.519 71.416 37.653 62.874 29.095 56.042zM37.654 62.874L42.788 71.416 51.346 61.166 46.212 56.041z" transform="translate(-941 -486) translate(315 330) translate(613 156) translate(13) translate(4.2 5.6)"/>
                            <path fill="#00B74F" d="M28.28 30.807c-1.969 0-3.57 1.598-3.57 3.563 0 1.966 1.601 3.564 3.57 3.564h2.34c1.97 0 3.57-1.598 3.57-3.564 0-1.965-1.6-3.563-3.57-3.563h-2.34zm2.34 8.548h-2.34c-2.754 0-4.994-2.236-4.994-4.985 0-2.748 2.24-4.984 4.994-4.984h2.34c2.755 0 4.995 2.236 4.995 4.984 0 2.749-2.24 4.985-4.995 4.985zM44.255 30.807c-1.969 0-3.57 1.598-3.57 3.563 0 1.966 1.601 3.564 3.57 3.564h2.34c1.969 0 3.57-1.598 3.57-3.564 0-1.965-1.601-3.563-3.57-3.563h-2.34zm2.34 8.548h-2.34c-2.754 0-4.994-2.236-4.994-4.985 0-2.748 2.24-4.984 4.994-4.984h2.34c2.755 0 4.995 2.236 4.995 4.984 0 2.749-2.24 4.985-4.994 4.985z" transform="translate(-941 -486) translate(315 330) translate(613 156) translate(13) translate(4.2 5.6)"/>
                            <path fill="#00B74F" d="M34.903 35.252L40.586 35.252 40.586 33.832 34.903 33.832z" transform="translate(-941 -486) translate(315 330) translate(613 156) translate(13) translate(4.2 5.6)"/>
                            <path fill="#4C8ED2" d="M64.537 54.261L68.526 54.261 68.526 50.279 64.537 50.279zM72.516 54.261L76.506 54.261 76.506 50.279 72.516 50.279zM64.537 62.224L68.526 62.224 68.526 58.242 64.537 58.242zM72.516 62.224L76.506 62.224 76.506 58.242 72.516 58.242z" transform="translate(-941 -486) translate(315 330) translate(613 156) translate(13) translate(4.2 5.6)"/>
                            <path fill="#00B74F" d="M58.588 64.215v-11.65c-.004-5.513 5.349-9.984 11.956-9.987H94.46c6.61 0 11.969 4.47 11.969 9.986v11.651h-47.84z" transform="translate(-941 -486) translate(315 330) translate(613 156) translate(13) translate(4.2 5.6)"/>
                            <path fill="#F7C590" d="M98.449 50.677L98.449 72.178 66.532 72.178 66.532 50.677 68.526 50.278 72.516 48.288 72.516 34.352 92.464 34.352 92.464 48.288 96.453 50.278z" transform="translate(-941 -486) translate(315 330) translate(613 156) translate(13) translate(4.2 5.6)"/>
                            <path fill="#F3B88B" d="M92.464 41.896v-7.544H72.516v7.544c6.26 3.213 13.689 3.213 19.948 0" transform="translate(-941 -486) translate(315 330) translate(613 156) translate(13) translate(4.2 5.6)"/>
                            <path fill="#0087D9" d="M131.601 92.493v.149c0 4.323-3.75 7.828-8.376 7.83-3.384 0-6.436-1.902-7.737-4.82l-9.06-17.547v22.364H58.553V78.105l-9.06 17.546c-1.501 3.364-5.286 5.317-9.132 4.711-4.06-.631-6.981-4-6.981-7.844v-.037c0-.88.16-1.754.47-2.586l11.445-30.549c1.27-3.388 4.36-5.899 8.126-6.604l5.132-.726 9.973-1.864 3.99-1.864v1.679c0 5.226 4.576 9.6 10.168 9.5 5.432-.1 9.78-4.24 9.78-9.315v-1.864l3.989 1.864 9.975 1.864 5.023.707c3.824.716 6.946 3.29 8.181 6.746l11.49 30.417c.317.838.479 1.719.479 2.607" transform="translate(-941 -486) translate(315 330) translate(613 156) translate(13) translate(4.2 5.6)"/>
                            <path fill="#F7C590" d="M131.601 92.493v.149c0 4.323-3.75 7.828-8.376 7.83-3.384 0-6.436-1.902-7.737-4.82l-8.292-15.822 16.91-8.52 7.017 18.576c.316.838.477 1.719.478 2.607" transform="translate(-941 -486) translate(315 330) translate(613 156) translate(13) translate(4.2 5.6)"/>
                            <path fill="#97D700" d="M58.553 52.015L68.526 50.151 68.526 100.469 58.553 100.469zM106.428 52.015L106.428 100.469 96.454 100.469 96.454 50.151z" transform="translate(-941 -486) translate(315 330) translate(613 156) translate(13) translate(4.2 5.6)"/>
                            <path fill="#FFDDB9" d="M94.459 67.79v5.72c0 2.539 2.201 4.595 4.918 4.595h7.05l9.317 18.12c1.147 2.569 3.835 4.244 6.816 4.244h1.453c3.688 0 6.948-2.45 7.503-5.858.313-1.922-.255-3.857-1.533-5.35L107.9 64.827c-.934-1.034-2.309-1.63-3.756-1.63h-4.767c-2.717 0-4.918 2.057-4.918 4.594" transform="translate(-941 -486) translate(315 330) translate(613 156) translate(13) translate(4.2 5.6)"/>
                            <path fill="#F7C590" d="M65.696 34.269h.627V22.645h-.627c-2.427 0-4.394 2.602-4.394 5.811 0 3.21 1.967 5.813 4.394 5.813M103.2 28.456c0-3.209-1.968-5.811-4.395-5.811h-.627v11.624h.627c2.427 0 4.395-2.603 4.395-5.813" transform="translate(-941 -486) translate(315 330) translate(613 156) translate(13) translate(4.2 5.6)"/>
                            <path fill="#FFDDB9" d="M82.236 48.621c-5.174 0-9.985-2.54-12.728-6.724l-.382-.584c-2.305-3.516-3.527-7.578-3.527-11.724v-9.517c0-8.76 7.448-15.861 16.637-15.861s16.638 7.101 16.638 15.861v9.517c0 4.146-1.223 8.208-3.528 11.724l-.382.584C92.22 46.08 87.41 48.62 82.236 48.62" transform="translate(-941 -486) translate(315 330) translate(613 156) translate(13) translate(4.2 5.6)"/>
                            <path fill="#005C99" d="M74.233 25.115c-1.065 0-1.928.86-1.928 1.924 0 1.062.863 1.922 1.928 1.922 1.064 0 1.927-.86 1.927-1.922-.001-1.063-.863-1.923-1.927-1.924M89.78 25.357c-1.064 0-1.927.86-1.927 1.923 0 1.063.863 1.924 1.928 1.924 1.064 0 1.927-.861 1.927-1.924-.002-1.062-.863-1.921-1.927-1.923" transform="translate(-941 -486) translate(315 330) translate(613 156) translate(13) translate(4.2 5.6)"/>
                            <path fill="#F7C590" d="M82.593 36.66c-.206 0-.413-.057-.6-.177l-.743-.477c-1.231-.79-1.892-2.233-1.685-3.68l.883-6.132c.087-.605.65-1.024 1.255-.939.607.087 1.028.649.942 1.253l-.882 6.133c-.085.59.185 1.18.687 1.502l.744.477c.514.33.665 1.015.333 1.53-.212.33-.57.51-.934.51M81.986 42.81c-2.584 0-4.654-.938-4.783-.999-.557-.257-.798-.916-.54-1.47.258-.556.915-.797 1.472-.54.042.019 3.899 1.744 7.065.032.54-.292 1.214-.091 1.504.446.292.538.093 1.21-.447 1.501-1.428.773-2.92 1.03-4.271 1.03" transform="translate(-941 -486) translate(315 330) translate(613 156) translate(13) translate(4.2 5.6)"/>
                            <path fill="#00B74F" d="M76.574 22.978c-.028 0-.057-.001-.085-.003l-4.997-.321c-.714-.045-1.255-.66-1.209-1.372.047-.713.657-1.25 1.375-1.207l4.998.321c.713.047 1.255.66 1.208 1.372-.044.684-.614 1.21-1.29 1.21M87.665 22.988c-.675 0-1.244-.52-1.29-1.203-.049-.712.49-1.33 1.202-1.378l4.996-.342c.712-.042 1.332.488 1.38 1.2.05.712-.49 1.328-1.202 1.378l-4.996.343c-.03.002-.06.002-.09.002" transform="translate(-941 -486) translate(315 330) translate(613 156) translate(13) translate(4.2 5.6)"/>
                            <path fill="#97D700" d="M90.796 1.917C85.914-.647 78.59-.317 73.242 1.033c-6.63 1.99-10.919 10.226-11.207 17.13 0 0 21.295-1.41 28.517-10.139 0 0 1.462 9.895 8.685 14.26 0 0 6.045-16.255-8.44-20.367" transform="translate(-941 -486) translate(315 330) translate(613 156) translate(13) translate(4.2 5.6)"/>
                            <path fill="#F7C590" d="M40.486 71.906l16.737 9.001-7.958 15.072c-1.779 3.99-6.682 5.879-10.954 4.218-3.124-1.214-5.16-4.067-5.16-7.227v-.162c.002-.88.161-1.755.472-2.586l6.863-18.316z" transform="translate(-941 -486) translate(315 330) translate(613 156) translate(13) translate(4.2 5.6)"/>
                            <path fill="#FFDDB9" d="M33.38 93.57c0 3.81 3.306 6.899 7.383 6.9h1.657c2.982 0 5.67-1.676 6.816-4.246l9.317-18.119h7.05c2.717 0 4.919-2.057 4.919-4.594v-5.72c0-2.537-2.202-4.594-4.918-4.594h-4.767c-1.448 0-2.823.596-3.757 1.63L34.998 89.261c-1.048 1.224-1.618 2.743-1.618 4.31" transform="translate(-941 -486) translate(315 330) translate(613 156) translate(13) translate(4.2 5.6)"/>
                        </g>
                    </g>
                </g>
            </g>
        </g>
    </g>
</svg>
