<svg xmlns="http://www.w3.org/2000/svg" xmlns:xlink="http://www.w3.org/1999/xlink" width="100" height="80" viewBox="0 0 100 80">
    <defs>
        <path id="1enzwnzgva" d="M0 0L39.059 0 39.059 26.44 0 26.44z"/>
        <path id="5eogevai2c" d="M0 0L59.549 0 59.549 38.24 0 38.24z"/>
        <path id="tyg34t1p0e" d="M0 0L59.549 0 59.549 29.317 0 29.317z"/>
        <path id="cqxl3ska6g" d="M0 0L22.007 0 22.007 26.768 0 26.768z"/>
    </defs>
    <g fill="none" fill-rule="evenodd">
        <g>
            <g>
                <g>
                    <g>
                        <g>
                            <path fill="#97D700" d="M7.206 23.395h24.648v15.168c0 5.585-4.598 10.112-10.27 10.112h-4.108c-5.672 0-10.27-4.527-10.27-10.112V23.395z" transform="translate(-174 -2148) translate(150 2044) translate(0 80) translate(24 24) translate(4 4)"/>
                            <path fill="#F7C590" d="M30.247 32.577h-.706v-6.068h.706c1.171 0 2.121 1.358 2.121 3.034 0 1.676-.95 3.034-2.12 3.034M8.79 26.51h.73v6.067h-.73c-1.209 0-2.188-1.358-2.188-3.034 0-1.675.98-3.033 2.188-3.033" transform="translate(-174 -2148) translate(150 2044) translate(0 80) translate(24 24) translate(4 4)"/>
                            <g fill="#F7C590">
                                <path d="M39.06 23.017v15.442H0V23.017c0-3.485 2.51-7.436 5.848-8.37 1.556-.435 3.097-.92 4.573-1.571l.345-.153c.877-.387 1.789-.687 2.69-1.017.695-.256 1.192-.916 1.192-1.69V0h9.764v10.215c0 .775.496 1.435 1.192 1.69.901.331 1.812.631 2.69 1.018l.345.153c1.475.65 3.017 1.136 4.573 1.571 3.337.934 5.847 4.885 5.847 8.37" transform="translate(-174 -2148) translate(150 2044) translate(0 80) translate(24 24) translate(4 4) translate(0 33.541)"/>
                            </g>
                            <g transform="translate(-174 -2148) translate(150 2044) translate(0 80) translate(24 24) translate(4 4) translate(0 45.56)">
                                <mask id="2ze8mebzlb" fill="#fff">
                                    <use xlink:href="#1enzwnzgva"/>
                                </mask>
                                <path fill="#00B74F" d="M0 26.44V10.998c0-3.385 2.369-7.21 5.564-8.282 2.03-.681 4.038-1.424 5.953-2.374L12.206 0l.626 5.01h13.205L26.853 0l.69.342c1.915.95 3.923 1.693 5.953 2.374 3.195 1.072 5.563 4.897 5.563 8.282V26.44" mask="url(#2ze8mebzlb)"/>
                            </g>
                            <g fill="#0087D9">
                                <path d="M0 26.44V10.998c0-3.385 2.369-7.21 5.564-8.282 2.03-.681 4.038-1.424 5.953-2.374L12.206 0l7.323 17.798L26.853 0l.69.342c1.915.95 3.923 1.693 5.953 2.374 3.195 1.072 5.563 4.897 5.563 8.282V26.44" transform="translate(-174 -2148) translate(150 2044) translate(0 80) translate(24 24) translate(4 4) translate(0 45.56)"/>
                            </g>
                            <path fill="#FFDDB9" d="M23.421 40.692c-1.208.595-2.54.904-3.891.904-1.35 0-2.683-.31-3.891-.904-3.91-1.925-6.379-5.858-6.379-10.162v-6.124c0-5.584 4.598-11.024 10.27-11.024s10.27 5.44 10.27 11.024v6.124c0 4.304-2.47 8.237-6.379 10.162" transform="translate(-174 -2148) translate(150 2044) translate(0 80) translate(24 24) translate(4 4)"/>
                            <path fill="#005C99" d="M14.264 26.341c-.733 0-1.328.586-1.328 1.308 0 .722.595 1.307 1.328 1.307.734 0 1.328-.585 1.328-1.307s-.595-1.307-1.328-1.308M24.4 26.506c-.733 0-1.327.586-1.327 1.308 0 .722.594 1.307 1.328 1.307.733 0 1.327-.585 1.327-1.307s-.595-1.307-1.327-1.308" transform="translate(-174 -2148) translate(150 2044) translate(0 80) translate(24 24) translate(4 4)"/>
                            <path fill="#97D700" d="M31.854 21.373v3.033H29.8l-4.108-7.28-1.027-1.82-.527.444c-.165.14-.332.28-.5.416-4.288 3.524-9.15 6.31-14.378 8.24H7.206v-3.033c.003-6.705 5.527-12.138 12.337-12.135 1.394 0 2.779.235 4.095.692.713.247 1.4.56 2.054.933 3.812 2.17 6.16 6.174 6.162 10.51" transform="translate(-174 -2148) translate(150 2044) translate(0 80) translate(24 24) translate(4 4)"/>
                            <path fill="#D0DF00" d="M13.813 45.087L11.907 45.469 9.049 50.251 12.86 52.126 10.955 54.003 19.529 64.323 19.529 61.508zM25.247 45.087L27.152 45.469 30.01 50.251 26.2 52.126 28.105 54.003 19.53 64.323 19.53 61.508z" transform="translate(-174 -2148) translate(150 2044) translate(0 80) translate(24 24) translate(4 4)"/>
                            <path fill="#F7C590" d="M19.761 34.245c-.142 0-.285-.038-.413-.12l-.783-.495c-.68-.43-1.053-1.219-.947-2.008l.424-3.17c.055-.413.441-.704.858-.649.419.055.713.433.658.845l-.423 3.17c-.029.214.072.428.256.545l.784.496c.355.224.458.69.23 1.04-.146.224-.392.346-.644.346M19.318 37.687c-1.781 0-3.207-.638-3.297-.679-.383-.174-.55-.622-.37-1 .177-.376.63-.54 1.013-.366.028.012 2.687 1.186 4.87.022.37-.198.835-.063 1.036.303.201.366.063.822-.308 1.02-.985.526-2.013.7-2.944.7" transform="translate(-174 -2148) translate(150 2044) translate(0 80) translate(24 24) translate(4 4)"/>
                            <path fill="#97D700" d="M12.43 24.839c-.479 0-.874-.373-.891-.848-.018-.484.368-.892.86-.908l3.449-.12c.492-.006.905.363.922.848.018.485-.368.892-.86.909l-3.449.118-.03.001M26.39 24.839h-.033l-3.448-.12c-.492-.016-.877-.423-.86-.908.017-.485.425-.855.923-.847l3.448.119c.492.016.878.424.86.908-.016.475-.412.848-.89.848" transform="translate(-174 -2148) translate(150 2044) translate(0 80) translate(24 24) translate(4 4)"/>
                            <path fill="#F7C590" d="M49.341 28.594h.489V19.67h-.489c-1.888 0-3.418 1.997-3.418 4.46 0 2.465 1.53 4.463 3.418 4.463M78.523 24.132c0-2.463-1.53-4.46-3.419-4.46h-.488v8.922h.488c1.889 0 3.42-1.998 3.42-4.462" transform="translate(-174 -2148) translate(150 2044) translate(0 80) translate(24 24) translate(4 4)"/>
                            <g transform="translate(-174 -2148) translate(150 2044) translate(0 80) translate(24 24) translate(4 4) translate(32.45 33.657)">
                                <mask id="d2m7010thd" fill="#fff">
                                    <use xlink:href="#5eogevai2c"/>
                                </mask>
                                <path fill="#F7C590" d="M59.55 24.521V38.24H0V24.52c.001-3.957 2.65-7.442 6.505-8.56l15.502-4.49V0h15.535v11.472l15.502 4.49c3.857 1.116 6.507 4.601 6.505 8.56" mask="url(#d2m7010thd)"/>
                            </g>
                            <g transform="translate(-174 -2148) translate(150 2044) translate(0 80) translate(24 24) translate(4 4) translate(32.45 42.58)">
                                <mask id="u3k2can3zf" fill="#fff">
                                    <use xlink:href="#tyg34t1p0e"/>
                                </mask>
                                <path fill="#D0DF00" d="M59.55 15.599v13.718H0V15.6c.001-3.958 2.65-7.442 6.505-8.56l15.502-4.49V0l7.768 7.648L37.542 0v2.55l15.502 4.49c3.857 1.115 6.507 4.6 6.505 8.559" mask="url(#u3k2can3zf)"/>
                            </g>
                            <path fill="#00B74F" d="M54.386 45.13v26.767H32.38V58.179c.001-3.958 2.648-7.443 6.505-8.56l15.502-4.49z" transform="translate(-174 -2148) translate(150 2044) translate(0 80) translate(24 24) translate(4 4)"/>
                            <g transform="translate(-174 -2148) translate(150 2044) translate(0 80) translate(24 24) translate(4 4) translate(69.993 45.13)">
                                <mask id="wy50w6zmuh" fill="#fff">
                                    <use xlink:href="#cqxl3ska6g"/>
                                </mask>
                                <path fill="#00B74F" d="M22.007 13.05v13.718H0V0l15.502 4.49c3.857 1.116 6.507 4.601 6.505 8.56" mask="url(#wy50w6zmuh)"/>
                            </g>
                            <path fill="#D0DF00" d="M54.458 42.58L54.458 55.326 58.342 52.777 62.225 50.228zM69.993 42.58L69.993 55.326 66.11 52.777 62.225 50.228z" transform="translate(-174 -2148) translate(150 2044) translate(0 80) translate(24 24) translate(4 4)"/>
                            <path fill="#0087D9" d="M58.342 52.777l3.883-2.549 3.884 2.55-1.294 3.823 1.294 15.296h-7.767L59.637 56.6l-1.295-3.824z" transform="translate(-174 -2148) translate(150 2044) translate(0 80) translate(24 24) translate(4 4)"/>
                            <path fill="#FFDDB9" d="M75.171 17.845v6.373c0 1.269-.079 2.536-.236 3.795-.157 1.26-.392 2.508-.706 3.738 0 0-5.026 8.901-7.995 8.901h-8.017c-2.97 0-7.995-8.901-7.995-8.901-.626-2.464-.943-4.993-.942-7.533v-6.373c0-7.04 5.796-12.746 12.945-12.746 7.15 0 12.946 5.706 12.946 12.746" transform="translate(-174 -2148) translate(150 2044) translate(0 80) translate(24 24) translate(4 4)"/>
                            <path fill="#005C99" d="M60.42 0h3.61c2.816 0 5.452 1.338 7.086 3.58l.171.244c1.295 0 3.884 2.282 3.884 5.098v7.648l-5.178-8.922H54.458L49.28 16.57V8.922c0-2.816 2.59-5.098 3.884-5.098C54.78 1.435 57.504 0 60.42 0z" transform="translate(-174 -2148) translate(150 2044) translate(0 80) translate(24 24) translate(4 4)"/>
                            <path fill="#F7C590" d="M62.489 30.5c-.142 0-.285-.038-.414-.12l-.785-.498c-.8-.506-1.228-1.43-1.094-2.356l.722-4.949c.06-.41.448-.697.865-.638.418.06.709.44.648.853l-.721 4.948c-.05.344.11.688.406.876l.787.497c.355.225.458.69.23 1.041-.147.223-.393.346-.644.346M55.493 11.996h12.17c.572 0 1.035.456 1.035 1.02 0 .561-.463 1.018-1.035 1.018h-12.17c-.571 0-1.035-.457-1.035-1.019 0-.563.464-1.02 1.035-1.02" transform="translate(-174 -2148) translate(150 2044) translate(0 80) translate(24 24) translate(4 4)"/>
                            <path fill="#97D700" d="M54.458 42.58L45.396 52.777 50.575 55.326 47.985 60.425 54.458 70.622zM69.993 42.58L79.055 52.777 73.876 55.326 76.465 60.425 69.993 70.622z" transform="translate(-174 -2148) translate(150 2044) translate(0 80) translate(24 24) translate(4 4)"/>
                            <path fill="#005C99" d="M55.984 20.982c-.828 0-1.5.661-1.5 1.476 0 .816.672 1.477 1.5 1.477s1.5-.661 1.5-1.477c-.001-.815-.672-1.475-1.5-1.476M68.082 21.168c-.828 0-1.5.661-1.5 1.477 0 .815.672 1.476 1.5 1.476s1.5-.661 1.5-1.476c-.002-.816-.672-1.476-1.5-1.477M57.865 19.073c-.014.002-.029.002-.043.002l-3.896.06c-.493.007-.898-.38-.905-.865-.008-.485.384-.886.878-.891l3.895-.06c.492-.008.898.38.906.864.007.471-.363.86-.835.89M66.38 19.128c-.464-.026-.834-.402-.84-.866-.006-.484.389-.883.88-.89l3.897-.048c.489-.005.897.382.903.867.006.485-.387.883-.88.89l-3.896.048-.064-.001" transform="translate(-174 -2148) translate(150 2044) translate(0 80) translate(24 24) translate(4 4)"/>
                            <path fill="#FFF" d="M58.265 33.111h7.247c.274 0 .467.265.377.52-.345.978-1.36 3-3.861 3-2.474 0-3.68-1.98-4.129-2.97-.117-.259.078-.55.366-.55" transform="translate(-174 -2148) translate(150 2044) translate(0 80) translate(24 24) translate(4 4)"/>
                        </g>
                    </g>
                </g>
            </g>
        </g>
    </g>
</svg>
